<?xml version="1.0" encoding="utf-8"?>
<!-- Generator: Adobe Illustrator 19.1.0, SVG Export Plug-In . SVG Version: 6.00 Build 0)  -->
<svg version="1.1" id="レイヤー_1" xmlns="http://www.w3.org/2000/svg" xmlns:xlink="http://www.w3.org/1999/xlink" x="0px"
	 y="0px" viewBox="-223 25 512 512" style="enable-background:new -223 25 512 512;" xml:space="preserve">
<style type="text/css">
	.st0{clip-path:url(#SVGID_2_);}
	.st1{fill:#FFFFFF;}
</style>
<g>
	<g>
		<defs>
			<rect id="SVGID_1_" x="-223" y="25" width="512" height="512"/>
		</defs>
		<clipPath id="SVGID_2_">
			<use xlink:href="#SVGID_1_"  style="overflow:visible;"/>
		</clipPath>
		<g class="st0">
			<path class="st1" d="M-278.5-208.6c-14.2,9.1-28,18.8-41.4,29.1L33,280.4L-278.5-208.6z"/>
			<path class="st1" d="M-92.5-285.6c-16.6,3.7-32.9,8-48.9,13.1L33,280.4L-92.5-285.6z"/>
			<path class="st1" d="M7.7-298.7c-17,0.7-33.8,2.3-50.4,4.4L33,280.4L7.7-298.7z"/>
			<path class="st1" d="M-358.6-147c-12.4,11.4-24.4,23.3-35.8,35.7L33,280.4L-358.6-147z"/>
			<path class="st1" d="M-541.7,204.7c-2.2,16.6-3.6,33.4-4.3,50.4l579,25.3L-541.7,204.7z"/>
			<path class="st1" d="M-481.2,12.7c-7.8,14.9-14.9,30.2-21.4,45.8L33,280.4L-481.2,12.7z"/>
			<path class="st1" d="M-426.8-72.5c-10.3,13.4-20,27.2-29,41.4L33,280.4L-426.8-72.5z"/>
			<path class="st1" d="M521.9-31.1c-9.1-14.2-18.8-28-29.1-41.4L33,280.4L521.9-31.1z"/>
			<path class="st1" d="M599,154.9c-3.7-16.6-8-32.9-13.1-48.9L33,280.4L599,154.9z"/>
			<path class="st1" d="M108.7-294.4c-16.6-2.2-33.4-3.6-50.4-4.3L33,280.4L108.7-294.4z"/>
			<path class="st1" d="M612.1,255.1c-0.7-17-2.3-33.8-4.4-50.4L33,280.4L612.1,255.1z"/>
			<path class="st1" d="M300.7-233.8c-14.9-7.8-30.2-14.9-45.8-21.4L33,280.4L300.7-233.8z"/>
			<path class="st1" d="M460.3-111.2c-11.4-12.4-23.3-24.4-35.7-35.8L33,280.4L460.3-111.2z"/>
			<path class="st1" d="M385.8-179.5c-13.4-10.3-27.2-20-41.4-29L33,280.4L385.8-179.5z"/>
			<path class="st1" d="M424.6,707.7c12.4-11.4,24.4-23.3,35.8-35.7L33,280.4L424.6,707.7z"/>
			<path class="st1" d="M344.5,769.3c14.2-9.1,28-18.8,41.4-29.1L33,280.4L344.5,769.3z"/>
			<path class="st1" d="M58.3,859.4c17-0.7,33.8-2.3,50.4-4.4L33,280.4L58.3,859.4z"/>
			<path class="st1" d="M158.5,846.3c16.6-3.7,32.9-8,48.9-13.1L33,280.4L158.5,846.3z"/>
			<path class="st1" d="M33,280.4L607.7,356c2.2-16.6,3.6-33.4,4.3-50.4L33,280.4z"/>
			<path class="st1" d="M492.8,633.2c10.3-13.4,20-27.2,29-41.4L33,280.4L492.8,633.2z"/>
			<path class="st1" d="M547.2,548.1c7.8-14.9,14.9-30.2,21.4-45.8L33,280.4L547.2,548.1z"/>
			<path class="st1" d="M-455.9,591.8c9.1,14.2,18.8,28,29.1,41.4L33,280.4L-455.9,591.8z"/>
			<path class="st1" d="M-546.1,305.7c0.7,17,2.3,33.8,4.4,50.4L33,280.4L-546.1,305.7z"/>
			<path class="st1" d="M-533,405.9c3.7,16.6,8,32.9,13.1,48.9L33,280.4L-533,405.9z"/>
			<path class="st1" d="M-234.7,794.6c14.9,7.8,30.2,14.9,45.8,21.4L33,280.4L-234.7,794.6z"/>
			<path class="st1" d="M-394.3,671.9c11.4,12.4,23.3,24.4,35.7,35.8L33,280.4L-394.3,671.9z"/>
			<path class="st1" d="M-42.7,855.1c16.6,2.2,33.4,3.6,50.4,4.3l25.3-579L-42.7,855.1z"/>
			<path class="st1" d="M-319.8,740.2c13.4,10.3,27.2,20,41.4,29L33,280.4L-319.8,740.2z"/>
			<path class="st1" d="M33,280.4l552.9,174.3c5-16,9.3-32.3,13-48.9L33,280.4z"/>
			<path class="st1" d="M568.6,58.5c-6.5-15.6-13.6-30.9-21.4-45.8L33,280.4L568.6,58.5z"/>
			<path class="st1" d="M207.3-272.5c-16-5-32.3-9.3-48.9-13L33,280.4L207.3-272.5z"/>
			<path class="st1" d="M-188.9-255.2c-15.7,6.5-31,13.6-45.8,21.3L33,280.4L-188.9-255.2z"/>
			<path class="st1" d="M-519.9,106c-5.1,16-9.4,32.3-13.1,48.8L33,280.3L-519.9,106z"/>
			<path class="st1" d="M-502.6,502.2c6.5,15.7,13.6,31,21.3,45.8L33,280.4L-502.6,502.2z"/>
			<path class="st1" d="M-141.3,833.3c16,5.1,32.3,9.4,48.8,13.1L33,280.4L-141.3,833.3z"/>
			<path class="st1" d="M254.9,815.9c15.7-6.5,31-13.6,45.8-21.3L33,280.4L254.9,815.9z"/>
		</g>
	</g>
</g>
</svg>
